<svg xmlns="http://www.w3.org/2000/svg" xmlns:xlink="http://www.w3.org/1999/xlink" width="500" zoomAndPan="magnify" viewBox="0 0 375 374.999991" height="500" preserveAspectRatio="xMidYMid meet" version="1.0"><defs><clipPath id="75c2c84020"><path d="M 27.589844 6 L 347.089844 6 L 347.089844 369 L 27.589844 369 Z M 27.589844 6 " clip-rule="nonzero"/></clipPath><clipPath id="dbf8f67a49"><path d="M 27.589844 6 L 97 6 L 97 89 L 27.589844 89 Z M 27.589844 6 " clip-rule="nonzero"/></clipPath></defs><g clip-path="url(#75c2c84020)"><path fill="#111827" d="M 333.121094 209.507812 C 325.9375 197.542969 316.761719 187.769531 306 180.535156 C 313.445312 174.734375 319.65625 167.996094 324.5625 160.363281 C 332.804688 147.511719 336.992188 132.78125 336.992188 116.578125 C 336.992188 47.359375 287.570312 6.019531 204.796875 6.019531 L 125.875 6.019531 L 125.875 88.921875 L 160.121094 88.921875 L 160.121094 89.171875 L 210.738281 89.171875 C 243.539062 89.171875 246.257812 103.949219 246.257812 113.929688 C 246.257812 119.753906 252.199219 141.570312 210.738281 141.570312 L 193.40625 141.570312 L 193.40625 222.792969 L 218.519531 222.792969 C 240.175781 222.792969 256.648438 232.691406 256.648438 253.5625 C 256.648438 280.65625 223.824219 284.34375 218.519531 284.34375 L 96.503906 284.34375 L 96.503906 118.109375 L 27.574219 118.109375 L 27.574219 368.941406 L 204.796875 368.941406 C 246.65625 368.941406 279.957031 360.992188 303.761719 345.316406 C 332.707031 326.261719 347.382812 296.519531 347.382812 256.949219 C 347.382812 242.148438 342.046875 224.414062 333.121094 209.507812 " fill-opacity="1" fill-rule="nonzero"/></g><g clip-path="url(#dbf8f67a49)"><path fill="#3b82f6" d="M 96.503906 6.019531 L 96.503906 88.921875 L 27.574219 88.921875 L 27.574219 6.019531 L 96.503906 6.019531 " fill-opacity="1" fill-rule="nonzero"/></g></svg>